<?xml version="1.0" standalone="no"?><!DOCTYPE svg PUBLIC "-//W3C//DTD SVG 1.1//EN" "http://www.w3.org/Graphics/SVG/1.1/DTD/svg11.dtd"><svg t="1545636861925" class="icon" style="" viewBox="0 0 1024 1024" version="1.1" xmlns="http://www.w3.org/2000/svg" p-id="24647" xmlns:xlink="http://www.w3.org/1999/xlink" width="200" height="200"><defs><style type="text/css"></style></defs><path d="M512 958.620967c-246.331291 0-445.99982-199.668529-445.99982-445.99982S265.668709 66.62235 512 66.62235s445.99982 199.668529 445.99982 445.99982S758.331291 958.620967 512 958.620967zM512 122.372072c-215.528752 0-390.249075 174.720324-390.249075 390.249075s174.720324 390.249075 390.249075 390.249075 390.249075-174.720324 390.249075-390.249075S727.528752 122.372072 512 122.372072zM658.037051 484.718657l78.830393 78.830393c21.770839 21.770839 21.770839 57.059554 0 78.830393L559.665603 819.581284c-21.770839 21.769816-57.059554 21.769816-78.830393 0l-275.934516-275.934516c-21.770839-21.770839-21.770839-57.059554 0-78.858022l78.634942-78.634942 39.414685-39.415708 59.122539-59.122539c21.770839-21.770839 57.059554-21.770839 78.830393 0l78.830393 78.830393 98.538247-98.565876c21.770839-21.770839 57.059554-21.770839 78.830393 0l39.415708 39.414685c21.770839 21.770839 21.770839 57.059554 0 78.830393L658.037051 484.718657zM263.828804 484.718657c-10.899234 10.899234-10.899234 28.544103 0 39.415708l19.707854 19.707854 39.414685-39.414685 39.415708 39.414685-39.415708 39.415708 39.415708 39.414685 59.122539-59.122539 39.414685 39.415708-59.122539 59.122539 39.414685 39.414685 39.414685-39.414685 39.414685 39.414685-39.414685 39.415708 19.707854 19.707854c10.899234 10.899234 28.544103 10.899234 39.415708 0l59.122539-59.122539-275.934516-275.962146L263.828804 484.718657zM707.319477 336.870354l-19.707854-19.707854c-5.435803-5.435803-14.272052-5.435803-19.707854 0L539.79095 445.276343l-33.951253-33.951253-25.171286-25.171286-39.414685-39.414685c-10.899234-10.899234-28.544103-10.899234-39.414685 0l-39.414685 39.414685 275.934516 275.934516 39.414685-39.415708c10.871605-10.871605 10.871605-28.544103 0-39.414685l-39.414685-39.415708-25.171286-25.171286-33.951253-33.951253 128.113843-128.11282C712.75528 351.142405 712.75528 342.333786 707.319477 336.870354z" p-id="24648" fill="#e12121"></path></svg>