<?xml version="1.0" standalone="no"?><!DOCTYPE svg PUBLIC "-//W3C//DTD SVG 1.1//EN" "http://www.w3.org/Graphics/SVG/1.1/DTD/svg11.dtd"><svg t="1545634546108" class="icon" style="" viewBox="0 0 1024 1024" version="1.1" xmlns="http://www.w3.org/2000/svg" p-id="3152" xmlns:xlink="http://www.w3.org/1999/xlink" width="200" height="200"><defs><style type="text/css"></style></defs><path d="M363.946667 152.448C417.962667 99.413333 509.098667 137.685333 509.098667 213.333333v596.650667c0 75.648-91.136 113.877333-145.152 60.885333l-144.341334-141.738666H170.666667a128 128 0 0 1-128-128V422.186667a128 128 0 0 1 128-128h48.938666L363.946667 152.448z m198.485333 37.376a42.666667 42.666667 0 0 1 45.44-39.68c185.685333 12.544 330.794667 170.666667 330.794667 361.813333 0 191.274667-145.109333 349.354667-330.794667 361.898667a42.666667 42.666667 0 0 1-5.76-85.12C741.461333 779.349333 853.333333 659.882667 853.333333 512c0-147.925333-111.872-267.306667-251.221333-276.736a42.666667 42.666667 0 0 1-39.68-45.44zM423.765333 213.333333L266.965333 367.274667a42.666667 42.666667 0 0 1-29.866666 12.245333H170.666667a42.666667 42.666667 0 0 0-42.666667 42.666667v178.944a42.666667 42.666667 0 0 0 42.666667 42.666666h66.389333a42.666667 42.666667 0 0 1 29.866667 12.202667l156.842666 153.984V213.333333z m139.008 144.64a42.666667 42.666667 0 0 1 48.426667-36.010666c91.946667 13.482667 161.194667 94.165333 161.194667 190.037333s-69.248 176.512-161.194667 190.037333a42.666667 42.666667 0 1 1-12.373333-84.437333c49.024-7.210667 88.234667-51.029333 88.234666-105.6 0-54.613333-39.253333-98.389333-88.277333-105.6a42.666667 42.666667 0 0 1-36.010667-48.426667z" fill="#e12121" p-id="3153"></path></svg>