<?xml version="1.0" standalone="no"?><!DOCTYPE svg PUBLIC "-//W3C//DTD SVG 1.1//EN" "http://www.w3.org/Graphics/SVG/1.1/DTD/svg11.dtd"><svg t="1545636703859" class="icon" style="" viewBox="0 0 1024 1024" version="1.1" xmlns="http://www.w3.org/2000/svg" p-id="21972" xmlns:xlink="http://www.w3.org/1999/xlink" width="200" height="200"><defs><style type="text/css"></style></defs><path d="M512 64.383234C264.7878 64.383234 64.383234 264.7878 64.383234 512s200.404567 447.616766 447.616766 447.616766 447.616766-200.404567 447.616766-447.616766S759.2122 64.383234 512 64.383234zM649.153661 476.550387c-14.514842 12.958403-36.414339 11.264-48.914906-3.784303l-50.402874-60.683752 0 287.768527c0 19.858651-15.528623 35.958547-34.684168 35.958547s-34.684168-16.098874-34.684168-35.958547L480.467545 409.174866l-57.516711 64.531417c-13.000303 14.585357-34.942723 15.483657-49.011992 2.005078-14.068248-13.477557-14.933844-36.227321-1.934563-50.812679l106.756599-119.777341c20.609788-23.122778 55.10285-22.477924 74.964567 1.433804l99.077621 119.283737C665.302611 440.886164 663.668503 463.590962 649.153661 476.550387z" p-id="21973" fill="#e12121"></path></svg>