<?xml version="1.0" encoding="utf-8"?>
<!-- Generator: Adobe Illustrator 22.1.0, SVG Export Plug-In . SVG Version: 6.00 Build 0)  -->
<svg version="1.1" id="图层_1" xmlns="http://www.w3.org/2000/svg" xmlns:xlink="http://www.w3.org/1999/xlink" x="0px" y="0px"
	 viewBox="0 0 400 400" style="enable-background:new 0 0 400 400;" xml:space="preserve">
<style type="text/css">
	.st0{fill:#D42623;}
</style>
<g>
	<g>
		<path class="st0" d="M125.4,206.8c2.7-2.1,4-5.2,4-9.3c0-4-1.3-7-3.9-9c-2.5-1.9-6.3-2.9-11.4-2.9H92.4v24.2H114
			C118.9,209.9,122.7,208.8,125.4,206.8z M191.8,206.8c2.7-2.1,4-5.2,4-9.3c0-4-1.3-7-3.9-9c-2.5-1.9-6.3-2.9-11.4-2.9h-21.7v24.2
			h21.6C185.4,209.9,189.2,208.8,191.8,206.8z M127.7,219.8c-2.8-2.1-7-3.2-12.6-3.2H92.4v26.4h22.7c4.8,0,8.7-0.9,11.9-2.8
			c3.5-2.2,5.3-5.6,5.3-10.3C132.2,225.5,130.7,222.1,127.7,219.8z M299.1,105.5H57c-14.6,0-26.3,10.6-26.3,25.3v159.1
			c0,7.4,2.2,13.3,7.3,18.6c5.1,5.3,12,6.8,19.4,6.8h33.2l51.1,51.5l51.1-51.5h106.4c7.3,0,13.7-1.7,18.7-6.9
			c5.1-5.2,7.1-11,7.1-18.3V130.7C324.9,116.1,313.7,105.5,299.1,105.5z M133,245.7c-4.3,2.9-10,4.3-17.2,4.3H84.2v-71.2H116
			c6.6,0,11.9,1.6,15.8,4.8c3.8,3.2,5.7,7.6,5.7,13.2c0,4-1.1,7.4-3.2,10.4c-2.2,2.6-5.1,4.5-8.7,5.7c4.6,0.8,8.2,2.7,10.9,5.8
			c2.7,3.1,4,6.9,4,11.6C140.4,237.1,138,242.3,133,245.7z M199.5,245.7c-4.3,2.9-10,4.3-17.2,4.3h-31.6v-71.2h31.8
			c6.6,0,11.9,1.6,15.8,4.8c3.8,3.2,5.7,7.6,5.7,13.2c0,4-1.1,7.4-3.2,10.4c-2.2,2.6-5.1,4.5-8.7,5.7c4.6,0.8,8.2,2.7,10.9,5.8
			c2.7,3.1,4,6.9,4,11.6C206.9,237.1,204.4,242.3,199.5,245.7z M262.3,246.1c-5.1,3.5-11.8,5.3-20.1,5.3c-8.4,0-15-1.8-19.7-5.4
			c-5.6-4.3-8.7-10.8-9.3-19.5h8.1c0.7,6.2,2.9,10.7,6.5,13.7c3.4,2.7,8.2,4,14.5,4c5.8,0,10.6-1.1,14.2-3.3c3.6-2.2,5.4-5.2,5.4-9
			c0-4.5-2.4-7.9-7.1-10.5c-1.8-1.1-6.8-2.8-15.1-5.2c-8.4-2.5-13.8-4.5-16.4-5.8c-5.5-3.2-8.2-7.8-8.2-13.8
			c0-6.2,2.6-11.1,7.9-14.5c4.7-3.2,10.8-4.8,18.1-4.8c8.1,0,14.4,1.8,18.9,5.5c4.7,3.8,7.4,9.4,8.2,16.9h-8.1
			c-0.9-5.1-2.9-8.9-6-11.5c-3.1-2.5-7.6-3.8-13.5-3.8c-5.4,0-9.5,0.9-12.4,2.6c-3.4,2-5.1,5-5.1,9.1c0,3.6,2,6.5,6.1,8.7
			c1.7,1,6.1,2.5,13.1,4.5c9.4,2.8,15.6,5.1,18.5,6.9c5.9,3.6,8.9,8.6,8.9,15.1C269.8,237.6,267.3,242.5,262.3,246.1z M343.7,51
			H101.6c-14.8,0-24.5,14.9-24.5,29.7v9.1h237.4c14.6,0,25.8,10.6,25.8,25.3v153.5h3.6c14.7,0,27.4-14,27.4-28.8V80.8
			C371.4,65.9,358.6,51,343.7,51z M194.1,219.8c-2.8-2.1-7-3.2-12.6-3.2h-22.7v26.4h22.7c4.8,0,8.7-0.9,11.9-2.8
			c3.5-2.2,5.3-5.6,5.3-10.3C198.7,225.5,197.2,222.1,194.1,219.8z"/>
	</g>
</g>
</svg>
