<?xml version="1.0" encoding="utf-8"?>
<!-- Generator: Adobe Illustrator 22.0.0, SVG Export Plug-In . SVG Version: 6.00 Build 0)  -->
<svg version="1.1" id="图层_1" xmlns="http://www.w3.org/2000/svg" xmlns:xlink="http://www.w3.org/1999/xlink" x="0px" y="0px"
	 viewBox="0 0 400 400" style="enable-background:new 0 0 400 400;" xml:space="preserve">
<style type="text/css">
	.st0{fill:#979797;}
</style>
<g>
	<path class="st0" d="M251.2,333.8c-0.3-0.2-0.7-0.4-0.9-0.5c-1.8-0.8-3.7-1.2-5.6-1.2c-8,0.2-20.1,0.2-36.4,0
		c-16.3,0.2-28.5,0.2-36.3,0c-2-0.1-3.8,0.4-5.6,1.2c-5.1,2.2-7.4,7.9-5.3,13c0.2,0.4,0.3,0.7,0.5,1c0.3,0.6,0.7,1,0.9,1.5
		c9.3,13.7,26.4,22.8,45.8,22.8c19.5,0,36.5-9.2,45.8-22.8c0.4-0.5,0.7-1,0.9-1.5C257.7,342.5,256,336.4,251.2,333.8z"/>
	<path class="st0" d="M362.5,255.9l-34.6-15.5c-14.2-6.3-23.4-20.3-23.5-35.9v-45.1c-0.2-44.9-29.4-84.5-72.3-97.8
		c-1.9-17.7-17.7-30.3-35.4-28.5c-15,1.6-26.8,13.4-28.5,28.5c-42.8,13.3-72.1,53-72.3,97.8v45.1c-0.1,15.5-9.3,29.5-23.5,35.9
		l-34.6,15.5c-8.5,3.8-14.1,12.2-14.1,21.6v0.2c0.6,10.8,3.8,21.9,20,24.9c47.1,10,99.3,14.9,156.3,14.9s109.1-5,156.3-14.9
		c13-2.6,19.9-9.5,20-20.7v-4.5C376.5,268.1,371,259.7,362.5,255.9z M191.3,123.9c-17.6-0.1-31.9,14-32.1,31.6
		c0,8.8-7.1,16.1-16.1,16.1c-8.8,0-16.1-7.1-16.1-16.1c0.3-35.1,28.9-63.5,64.1-63.2c8.7,0,15.8,7,15.8,15.8
		C207.1,116.9,199.9,123.9,191.3,123.9z"/>
</g>
</svg>
