<?xml version="1.0" encoding="utf-8"?>
<!-- Generator: Adobe Illustrator 22.0.0, SVG Export Plug-In . SVG Version: 6.00 Build 0)  -->
<svg version="1.1" id="图层_1" xmlns="http://www.w3.org/2000/svg" xmlns:xlink="http://www.w3.org/1999/xlink" x="0px" y="0px"
	 viewBox="0 0 400 400" style="enable-background:new 0 0 400 400;" xml:space="preserve">
<style type="text/css">
	.st0{fill:#94989A;}
</style>
<g>
	<g>
		<path class="st0" d="M347.6,55.2c-7.3-7.5-17.3-11.8-27.7-11.8H84.7c-10.4,0-20.4,4.2-27.7,11.8C49.6,62.8,45.5,73,45.5,83.6
			v185.2C45.5,291,63,309,84.7,309h235.2c21.6,0,39.2-18,39.2-40.1V83.6C359,73,354.9,62.8,347.6,55.2z M305.6,125.4L305.6,125.4
			l-75.6,91c-0.3,0.4-0.7,0.8-1,1.1c-5.5,5.3-14.2,5.1-19.4-0.5l-42.7-46.2l-53.9,50c-4,3.4-10,3-13.5-1s-3.4-10.1,0.4-13.9l58.1-54
			c5.5-5.2,14.1-4.8,19.2,0.7l42.1,45.7l71.3-85.9c3.5-4.2,9.7-4.7,13.8-1.1C308.6,114.9,309.1,121.2,305.6,125.4z M280.7,329.3
			H123.9c-7.6,0-13.8,6.2-13.8,13.8c0,7.6,6.2,13.8,13.8,13.8h156.8c7.6,0,13.8-6.2,13.8-13.8S288.3,329.3,280.7,329.3z"/>
	</g>
</g>
</svg>
