<?xml version="1.0" encoding="utf-8"?>
<!-- Generator: Adobe Illustrator 22.1.0, SVG Export Plug-In . SVG Version: 6.00 Build 0)  -->
<svg version="1.1" id="图层_1" xmlns="http://www.w3.org/2000/svg" xmlns:xlink="http://www.w3.org/1999/xlink" x="0px" y="0px"
	 viewBox="0 0 400 400" style="enable-background:new 0 0 400 400;" xml:space="preserve">
<style type="text/css">
	.st0{fill:#D42623;}
	.st1{fill:#D42423;}
</style>
<g>
	<g>
		<path class="st0" d="M196,64.3L59.5,186.1v134c0,22.4,18,40.6,40.1,40.6h59.4l0,0c-0.1-0.4-0.2-0.7-0.3-1c0-0.1-0.1-0.3-0.1-0.4
			s0-0.2,0-0.4c0-0.3-0.1-0.6-0.1-0.8v-97.5c0-21.3,21.7-42.7,42.8-42.7s40,21.9,40,43.2V358c0,0.3,0,0.6-0.1,0.8
			c0,0.1,0,0.2-0.1,0.4c0,0.1-0.1,0.3-0.1,0.4c-0.1,0.4-0.2,0.7-0.3,1l0,0h59.3c22.1,0,40.1-18.2,40.1-40.6V186.1L196,64.3z"/>
	</g>
</g>
<g>
	<g>
		<path class="st0" d="M44,207.7c18.2-16.3,36.4-32.7,54.5-49c27.9-25.1,55.9-50.1,83.7-75.2c3.8-3.4,7.5-6.8,11.3-10.2
			c1-0.9,2.1-1.8,3.1-2.7c0.3-0.2,0.5-0.4,0.8-0.7c1-1-3,1.9-0.1,0.4c-0.6,0.3-1,0.5-1.6,0.8c1.3-0.3,1.3-0.3,0.1-0.1
			c-0.3,0.1-0.7,0.1-0.9,0.2c1.6,0.1,1.3,0-0.8-0.2c3.2,0.5-2-0.9-0.2,0c1.2,0.7,0.6,0.8-1.7-1.3c0.1,0.1,0.3,0.3,0.5,0.4
			c0.8,0.7,1.6,1.3,2.4,2.1c3.5,2.9,7,5.8,10.5,8.9c27.8,23.5,55.7,47.2,83.5,70.7c21.7,18.4,43.2,36.8,65,55.1
			c0.4,0.3,0.8,0.7,1.1,0.9c5.8,4.9,15,6.1,20.6,0c5-5.5,6.2-15.4,0-20.6c-18.7-15.8-37.4-31.7-56.1-47.6
			c-29.3-24.9-58.7-49.7-88-74.5c-6.2-5.3-12.3-10.6-18.7-15.8c-11.3-9.2-25.3-9-36.4,0.6c-2.4,2.1-4.8,4.2-7.2,6.4
			c-26.4,23.6-52.7,47.4-79.1,71c-21.9,19.7-43.8,39.3-65.7,59c-0.4,0.4-0.8,0.7-1.1,1c-5.7,5.1-5.6,15.5,0,20.6
			C29.4,213.3,37.9,213.2,44,207.7L44,207.7z"/>
		<path class="st1" d="M366.1,215.5c-4.8,0-9.6-1.9-13.3-4.9c-0.2-0.2-0.5-0.4-0.7-0.6c-0.1-0.1-0.2-0.2-0.4-0.3l-0.2-0.1
			c-14.5-12.2-29.2-24.7-43.4-36.8c-7.2-6.1-14.4-12.2-21.6-18.4l-83.5-70.7c-2.7-2.4-5.5-4.7-8.1-6.9l-10.4,9.4
			c-13.9,12.5-27.9,25.1-41.9,37.6c-14,12.5-27.9,25.1-41.9,37.6c-9.1,8.1-18.2,16.3-27.3,24.5c-9.1,8.2-18.2,16.3-27.3,24.5l0,0
			c-7.4,6.6-18,6.7-25.2,0.2c-3.4-3.1-5.4-7.9-5.4-13c0-5,2-9.7,5.3-12.7c0.2-0.2,0.4-0.4,0.7-0.6c0.1-0.1,0.3-0.2,0.4-0.4l0.1-0.1
			c10.9-9.8,21.9-19.7,32.8-29.5c10.9-9.8,21.9-19.6,32.8-29.5c13.2-11.9,26.4-23.7,39.7-35.6c13.2-11.8,26.3-23.6,39.5-35.4
			c2.3-2.1,4.7-4.4,7.2-6.5c12.2-10.6,28.2-10.9,40.8-0.6c4.2,3.5,8.5,7.1,12.5,10.6c2.1,1.8,4.1,3.5,6.2,5.3
			c28.1,23.7,58.2,49.2,88,74.5c9.4,7.9,18.8,15.9,28.2,23.9c9.3,7.9,18.6,15.8,28,23.7c3.2,2.7,5.1,6.7,5.4,11.1
			c0.3,5.2-1.6,10.7-5.1,14.5C374.8,213.9,370.4,215.5,366.1,215.5z M356.1,204.1c0.2,0.2,0.5,0.4,0.7,0.6c0.1,0.1,0.2,0.2,0.4,0.3
			l0.1,0.1c4.4,3.7,11.4,5,15.8,0.3c2.2-2.4,3.5-6,3.3-9.4c-0.1-1.8-0.7-4.3-3-6.2c-9.3-7.9-18.6-15.8-28-23.7
			c-9.4-8-18.8-15.9-28.2-23.9c-29.8-25.3-59.9-50.8-88-74.5c-2.1-1.8-4.1-3.5-6.2-5.3c-4-3.5-8.2-7.1-12.4-10.5
			c-10-8.1-22.2-7.9-31.8,0.5c-2.4,2.1-4.8,4.2-7.1,6.3c-13.2,11.8-26.3,23.6-39.5,35.5c-13.2,11.9-26.4,23.7-39.7,35.6
			c-10.9,9.8-21.9,19.7-32.8,29.5C48.8,169.2,37.9,179,27,188.8c-0.2,0.2-0.4,0.4-0.7,0.6c-0.1,0.1-0.3,0.2-0.4,0.4l-0.1,0.1
			c-1.9,1.7-3,4.5-3,7.6c0,3.1,1.1,6.1,3.1,7.8c4.6,4.1,11.1,4,15.8-0.2c9.1-8.1,18.2-16.3,27.3-24.5c9.1-8.2,18.2-16.3,27.3-24.5
			c13.9-12.5,27.9-25.1,41.9-37.6C152,106,166,93.5,179.9,81l4.2-3.8l-14.6,3.1l12.7-6.3l-5.6-0.3l13.9-4.6c0.5-0.9,1.6-2.1,4.1-1.7
			l0.1-0.1c-0.1-0.1-0.2-0.1-0.4-0.2l0.4,0.2l0.2,0.2c0,0,0,0,0.1,0c0,0,0,0,0,0c3-2.2,4.9-0.4,5.4,0.2c0.9,1.1,1.3,2.9,0,4.5
			c2.5,2.1,5,4.2,7.4,6.3l83.4,70.7c7.2,6.1,14.4,12.2,21.6,18.4C326.9,179.5,341.6,192,356.1,204.1z M44,207.7L44,207.7L44,207.7z
			 M193.1,68.3c-0.2,0.2-0.5,0.4-0.7,0.6l1-0.5l0.3-0.3C193.5,68.1,193.3,68.2,193.1,68.3z M194,67.8c-0.2,0.1-0.3,0.1-0.5,0.2
			l0.3-0.1C193.8,67.9,193.9,67.9,194,67.8L194,67.8z M196.5,67.5c0.4,0,0.7,0,1.1,0.1c-0.6-0.3-1.3-0.3-1.8-0.2l0.1,0.2
			C196.1,67.5,196.3,67.5,196.5,67.5z"/>
	</g>
</g>
</svg>
