<?xml version="1.0" encoding="utf-8"?>
<!-- Generator: Adobe Illustrator 22.1.0, SVG Export Plug-In . SVG Version: 6.00 Build 0)  -->
<svg version="1.1" id="图层_1" xmlns="http://www.w3.org/2000/svg" xmlns:xlink="http://www.w3.org/1999/xlink" x="0px" y="0px"
	 viewBox="0 0 400 400" style="enable-background:new 0 0 400 400;" xml:space="preserve">
<style type="text/css">
	.st0{fill:#D72A25;}
	.st1{fill:none;}
</style>
<g>
	<g>
		<path class="st0" d="M286.7,43H114.2C84,43,59.7,67.4,59.7,97.5v208.9c0,30.1,24.4,54.5,54.5,54.5h172.6
			c30.1,0,54.5-24.4,54.5-54.5V97.6C341.2,67.5,316.8,43,286.7,43z M111.3,114.3c0-10,8.1-18.2,18.2-18.2h141.9
			c10,0,18.2,8.1,18.2,18.2v6.8c0,10-8.1,18.2-18.2,18.2H129.5c-10,0-18.2-8.1-18.2-18.2C111.3,121.1,111.3,114.3,111.3,114.3z
			 M214.4,252.7c0,6.7-5.4,12-12,12h-79c-6.7,0-12-5.4-12-12v-0.1c0-6.7,5.4-12,12-12h79C209,240.6,214.4,246,214.4,252.7
			L214.4,252.7z M123.5,202c-6.7,0-12.1-5.5-12.1-12.1v-0.1c0-6.7,5.5-12.1,12.1-12.1h154c6.7,0,12.1,5.5,12.1,12.1v0.1
			c0,6.7-5.5,12.1-12.1,12.1H123.5z M299.1,332c-10.4,0-18.9-8.6-18.9-19.2c0-10.6,8.5-19.2,18.9-19.2s18.9,8.6,18.9,19.2
			C318,323.4,309.5,332,299.1,332z"/>
	</g>
	<g>
		<path class="st1" d="M286.7,43H114.2C84,43,59.7,67.4,59.7,97.5v208.9c0,30.1,24.4,54.5,54.5,54.5h172.6
			c30.1,0,54.5-24.4,54.5-54.5V97.6C341.2,67.5,316.8,43,286.7,43z M111.3,114.3c0-10,8.1-18.2,18.2-18.2h141.9
			c10,0,18.2,8.1,18.2,18.2v6.8c0,10-8.1,18.2-18.2,18.2H129.5c-10,0-18.2-8.1-18.2-18.2C111.3,121.1,111.3,114.3,111.3,114.3z
			 M214.4,252.7c0,6.7-5.4,12-12,12h-79c-6.7,0-12-5.4-12-12v-0.1c0-6.7,5.4-12,12-12h79C209,240.6,214.4,246,214.4,252.7
			L214.4,252.7z M123.5,202c-6.7,0-12.1-5.5-12.1-12.1v-0.1c0-6.7,5.5-12.1,12.1-12.1h154c6.7,0,12.1,5.5,12.1,12.1v0.1
			c0,6.7-5.5,12.1-12.1,12.1H123.5z M299.1,332c-10.4,0-18.9-8.6-18.9-19.2c0-10.6,8.5-19.2,18.9-19.2s18.9,8.6,18.9,19.2
			C318,323.4,309.5,332,299.1,332z"/>
	</g>
	<g>
		<path class="st1" d="M286.7,43H114.2C84,43,59.7,67.4,59.7,97.5v208.9c0,30.1,24.4,54.5,54.5,54.5h172.6
			c30.1,0,54.5-24.4,54.5-54.5V97.6C341.2,67.5,316.8,43,286.7,43z M111.3,114.3c0-10,8.1-18.2,18.2-18.2h141.9
			c10,0,18.2,8.1,18.2,18.2v6.8c0,10-8.1,18.2-18.2,18.2H129.5c-10,0-18.2-8.1-18.2-18.2C111.3,121.1,111.3,114.3,111.3,114.3z
			 M214.4,252.7c0,6.7-5.4,12-12,12h-79c-6.7,0-12-5.4-12-12v-0.1c0-6.7,5.4-12,12-12h79C209,240.6,214.4,246,214.4,252.7
			L214.4,252.7z M123.5,202c-6.7,0-12.1-5.5-12.1-12.1v-0.1c0-6.7,5.5-12.1,12.1-12.1h154c6.7,0,12.1,5.5,12.1,12.1v0.1
			c0,6.7-5.5,12.1-12.1,12.1H123.5z M299.1,332c-10.4,0-18.9-8.6-18.9-19.2c0-10.6,8.5-19.2,18.9-19.2s18.9,8.6,18.9,19.2
			C318,323.4,309.5,332,299.1,332z"/>
	</g>
</g>
</svg>
