<?xml version="1.0" encoding="utf-8"?>
<!-- Generator: Adobe Illustrator 22.0.0, SVG Export Plug-In . SVG Version: 6.00 Build 0)  -->
<svg version="1.1" id="图层_1" xmlns="http://www.w3.org/2000/svg" xmlns:xlink="http://www.w3.org/1999/xlink" x="0px" y="0px"
	 viewBox="0 0 400 400" style="enable-background:new 0 0 400 400;" xml:space="preserve">
<style type="text/css">
	.st0{fill:#FF8A26;}
	.st1{fill:#FFFFFF;}
	.st2{fill:#CD660E;}
</style>
<path class="st0" d="M200.5,0.3c110.5,0,200.1,89.6,200.1,200.1S311,400.5,200.5,400.5S0.4,310.9,0.4,200.4S90,0.3,200.5,0.3z"/>
<g>
	<g>
		<path class="st1" d="M196.9,294c-2.8,0-5-2.2-5-5v-25.1h-45.6c-2.8,0-5-2.2-5-5v-29.1c0-0.5,0.1-1.1,0.3-1.6l36.8-111.6
			c0.7-2,2.6-3.4,4.7-3.4h56.4c2.8,0,5,2.2,5,5v106.6h7.1c2.8,0,5,2.2,5,5v29.1c0,2.8-2.2,5-5,5h-7.1V289c0,2.8-2.2,5-5,5H196.9z
			 M191.9,224.8v-28.4l-7.4,28.4H191.9z"/>
		<path class="st2" d="M239.5,118.2v111.6h12.1v29.1h-12.1V289h-42.6v-30.1h-50.6v-29.1l36.8-111.6H239.5 M178.1,229.8h18.8v-72.7
			L178.1,229.8 M239.5,108.2h-56.4c-4.3,0-8.1,2.8-9.5,6.9l-36.8,111.6c-0.3,1-0.5,2.1-0.5,3.1v29.1c0,5.5,4.5,10,10,10h40.6V289
			c0,5.5,4.5,10,10,10h42.6c5.5,0,10-4.5,10-10v-20.1h2.1c5.5,0,10-4.5,10-10v-29.1c0-5.5-4.5-10-10-10h-2.1V118.2
			C249.5,112.7,245,108.2,239.5,108.2L239.5,108.2z"/>
	</g>
</g>
</svg>
