<?xml version="1.0" encoding="utf-8"?>
<!-- Generator: Adobe Illustrator 22.0.0, SVG Export Plug-In . SVG Version: 6.00 Build 0)  -->
<svg version="1.1" id="图层_1" xmlns="http://www.w3.org/2000/svg" xmlns:xlink="http://www.w3.org/1999/xlink" x="0px" y="0px"
	 viewBox="0 0 400 400" style="enable-background:new 0 0 400 400;" xml:space="preserve">
<style type="text/css">
	.st0{fill:#546168;}
	.st1{fill:#FFFFFF;}
	.st2{fill:#3C4950;}
</style>
<path class="st0" d="M200.5,0.3c110.5,0,200.1,89.6,200.1,200.1S311,400.5,200.5,400.5S0.4,310.9,0.4,200.4S90,0.3,200.5,0.3z"/>
<g>
	<g>
		<path class="st1" d="M202,297.4c-14.3,0-25.9-2.5-34.3-7.5c-8.7-5.1-14.5-11.6-17.3-19.2c-2.7-7.2-3.9-19-3.9-36v-13.5
			c0-2.8,2.2-5,5-5h42.6c2.8,0,5,2.2,5,5v27.7c0,8.7,0.6,11.3,0.8,11.9c0.2,0.1,0.6,0.2,1.3,0.2c1.6,0,1.8-0.4,1.9-0.7
			c0.2-0.5,1.2-3.6,1.2-17.9v-11.8c0-7.2-0.9-10.6-1.7-12.1c-1.2-2.4-2.6-3.1-3.6-3.4c-1.3-0.4-5.1-1.2-15.3-1.4
			c-2.7,0-4.9-2.3-4.9-5v-24.8c0-2.8,2.2-5,5-5c13.4,0,16.6-0.7,17.2-0.9c0.7-0.2,1.5-0.6,2.1-2.2c0.6-1.4,1.2-4.3,1.2-10.4v-9.5
			c0-7.3-1-9-1-9.1c-0.2-0.2-0.4-0.6-1.5-0.6c-0.3,0-1.5,0-1.7,0.4c-0.1,0.2-1,2.1-1,10.4v14c0,2.8-2.2,5-5,5h-42.6
			c-2.8,0-5-2.2-5-5v-14.6c0-17.9,4.4-30.3,13.1-37c8.4-6.5,21.1-9.6,38.6-9.6c22,0,36.7,4.4,45,13.5c8.1,8.9,12.2,21.1,12.2,36.5
			c0,10.6-1.5,18.2-4.6,23.3c-1.9,3-4.4,5.8-7.8,8.4c3.5,2.3,6.3,5.2,8.5,8.6c2.4,3.7,5.5,11.7,5.5,37.6c0,14.4-1.6,25.3-5,33.5
			c-3.5,8.6-9.7,15.2-18.4,19.6C225.2,295.2,214.6,297.4,202,297.4z"/>
		<path class="st2" d="M198.1,114.9c20.3,0,34.1,4,41.3,11.9c7.2,7.9,10.9,19,10.9,33.1c0,9.6-1.3,16.5-3.9,20.7
			c-2.6,4.3-7.2,8.1-13.7,11.6c6.5,2.2,11.3,5.8,14.4,10.7c3.2,5,4.7,16.6,4.7,34.9c0,13.6-1.5,24.1-4.6,31.6
			c-3.1,7.5-8.4,13.2-16,17.1c-7.6,3.9-17.3,5.9-29.2,5.9c-13.5,0-24.1-2.3-31.8-6.8c-7.7-4.5-12.8-10.1-15.2-16.7
			c-2.4-6.6-3.6-18-3.6-34.2v-13.5h42.6v27.7c0,7.4,0.4,12.1,1.3,14.1c0.9,2,2.8,3,5.9,3c3.3,0,5.5-1.3,6.5-3.8s1.6-9.1,1.6-19.8
			v-11.8c0-6.5-0.7-11.3-2.2-14.3c-1.5-3-3.7-5-6.5-6c-2.9-0.9-8.5-1.5-16.8-1.6v-24.8c10.1,0,16.4-0.4,18.8-1.2
			c2.4-0.8,4.1-2.5,5.2-5.1c1.1-2.6,1.6-6.7,1.6-12.2v-9.5c0-6-0.6-9.9-1.8-11.8c-1.2-1.9-3.1-2.8-5.7-2.8c-3,0-5,1-6.1,3
			c-1.1,2-1.6,6.3-1.6,12.8v14h-42.6v-14.6c0-16.3,3.7-27.3,11.2-33.1C170,117.7,181.8,114.9,198.1,114.9 M198.1,104.9
			c-18.7,0-32.3,3.5-41.6,10.7c-10,7.7-15.1,21.5-15.1,41v14.6c0,5.5,4.5,10,10,10h22.8c-0.3,0.9-0.4,1.8-0.4,2.8v24.8
			c0,0.9,0.1,1.7,0.3,2.6h-22.7c-5.5,0-10,4.5-10,10v13.5c0,17.6,1.4,29.9,4.3,37.7c3.2,8.8,9.8,16.1,19.5,21.8
			c9.4,5.5,21.4,8.2,36.9,8.2c13.4,0,24.8-2.3,33.8-7c9.7-5,16.7-12.5,20.7-22.2c3.6-8.8,5.4-20.4,5.4-35.4
			c0-26.9-3.4-35.6-6.3-40.3c-1.4-2.2-3.1-4.3-5-6.1c1.7-1.8,3.2-3.7,4.4-5.6c3.6-5.9,5.4-14.4,5.4-25.9c0-16.6-4.5-30-13.5-39.8
			C237.5,109.8,221.5,104.9,198.1,104.9L198.1,104.9z"/>
	</g>
</g>
</svg>
