<?xml version="1.0" encoding="utf-8"?>
<!-- Generator: Adobe Illustrator 22.0.0, SVG Export Plug-In . SVG Version: 6.00 Build 0)  -->
<svg version="1.1" id="图层_1" xmlns="http://www.w3.org/2000/svg" xmlns:xlink="http://www.w3.org/1999/xlink" x="0px" y="0px"
	 viewBox="0 0 400 400" style="enable-background:new 0 0 400 400;" xml:space="preserve">
<style type="text/css">
	.st0{fill:#C0C0C0;}
	.st1{fill:#FFFFFF;}
	.st2{fill:#828282;}
</style>
<path class="st0" d="M200.5,0.3c110.5,0,200.1,89.6,200.1,200.1S311,400.5,200.5,400.5S0.4,310.9,0.4,200.4S90,0.3,200.5,0.3z"/>
<g>
	<g>
		<path class="st1" d="M171.1,294c-1.5,0-2.9-0.7-3.9-1.9s-1.3-2.7-1-4.2l29-134h-35.9c-2.8,0-5-2.2-5-5v-30.7c0-2.8,2.2-5,5-5h81.4
			c2.8,0,5,2.2,5,5v37.2c0,0.3,0,0.7-0.1,1L218.4,290c-0.5,2.3-2.5,4-4.9,4H171.1z"/>
		<path class="st2" d="M240.7,118.2v37.2L213.5,289h-42.4l30.3-140.1h-42.1v-30.7H240.7 M240.7,108.2h-81.4c-5.5,0-10,4.5-10,10
			v30.7c0,5.5,4.5,10,10,10H189l-27.7,127.9c-0.6,3,0.1,6,2,8.4s4.8,3.7,7.8,3.7h42.4c4.8,0,8.8-3.3,9.8-8l27.2-133.5
			c0.1-0.7,0.2-1.3,0.2-2v-37.2C250.7,112.7,246.2,108.2,240.7,108.2L240.7,108.2z"/>
	</g>
</g>
</svg>
