<?xml version="1.0" encoding="utf-8"?>
<!-- Generator: Adobe Illustrator 22.0.0, SVG Export Plug-In . SVG Version: 6.00 Build 0)  -->
<svg version="1.1" id="图层_1" xmlns="http://www.w3.org/2000/svg" xmlns:xlink="http://www.w3.org/1999/xlink" x="0px" y="0px"
	 viewBox="0 0 400 400" style="enable-background:new 0 0 400 400;" xml:space="preserve">
<style type="text/css">
	.st0{fill:#FDC478;}
	.st1{fill:#FFFFFF;}
	.st2{fill:#A76C1E;}
</style>
<path class="st0" d="M200.5,0.3c110.5,0,200.1,89.6,200.1,200.1S311,400.5,200.5,400.5S0.4,310.9,0.4,200.4S90,0.3,200.5,0.3z"/>
<g>
	<g>
		<path class="st1" d="M174.7,291v-96.5c0-17.4-0.6-21.6-0.8-22.7c-0.2-0.8-0.7-1.8-2.5-2.7c-0.8-0.4-4.2-1.6-16.9-1.6h-9.2v-28.9
			l3.9-0.8c19.3-4.2,34.1-12.7,44-25.5l1.5-1.9h32.6V291H174.7z"/>
		<path class="st2" d="M222.3,115.2V286h-42.6v-91.5c0-13.2-0.3-21.2-0.9-23.8c-0.6-2.7-2.4-4.7-5.2-6.1c-2.8-1.4-9.2-2.1-19-2.1
			h-4.2v-19.9c20.6-4.4,36.2-13.5,46.9-27.3H222.3 M232.3,105.2h-10h-25.1h-4.9l-3,3.9c-9.3,12-22.7,19.7-41.1,23.7l-7.9,1.7v8.1
			v19.9v10h10h4.2c10.3,0,13.8,0.8,14.6,1.1c0.2,1.6,0.6,6.6,0.6,20.9V286v10h10h42.6h10v-10V115.2V105.2L232.3,105.2z"/>
	</g>
</g>
</svg>
