<?xml version="1.0" encoding="utf-8"?>
<!-- Generator: Adobe Illustrator 22.0.0, SVG Export Plug-In . SVG Version: 6.00 Build 0)  -->
<svg version="1.1" id="图层_1" xmlns="http://www.w3.org/2000/svg" xmlns:xlink="http://www.w3.org/1999/xlink" x="0px" y="0px"
	 viewBox="0 0 400 400" style="enable-background:new 0 0 400 400;" xml:space="preserve">
<style type="text/css">
	.st0{fill:#6BC3F5;}
	.st1{fill:#FFFFFF;}
	.st2{fill:#3591C6;}
</style>
<path class="st0" d="M200.5,0.3c110.5,0,200.1,89.6,200.1,200.1S311,400.5,200.5,400.5S0.4,310.9,0.4,200.4S90,0.3,200.5,0.3z"/>
<g>
	<g>
		<path class="st1" d="M149.7,292c-1.3,0-2.6-0.5-3.5-1.5c-0.9-0.9-1.5-2.2-1.5-3.5l0-24.4c0-0.9,0.3-1.8,0.7-2.6
			c27.6-45.1,44.1-73.3,49.3-83.9c4.9-10.1,7.4-17.8,7.4-23.1c0-4.7-0.9-6.7-1.5-7.5c-0.5-0.7-1.2-1.3-3.1-1.3c-1.7,0-2.4,0.6-3,1.4
			c-0.4,0.6-1.6,3.3-1.6,12.4v16.2c0,2.8-2.2,5-5,5h-38.2c-2.8,0-5-2.2-5-5v-6.2c0-10,0.5-17.6,1.6-23.5c1.1-6.2,3.9-12.4,8.1-18.3
			c4.4-6,10.1-10.7,17.1-13.8c6.8-3,15-4.5,24.3-4.5c18.2,0,32.3,4.7,41.9,14c9.7,9.3,14.5,21.3,14.5,35.5c0,10.4-2.6,21.6-7.8,33.1
			c-4.7,10.4-17.2,30.9-38.4,62.4h37.3c2.8,0,5,2.2,5,5V287c0,2.8-2.2,5-5,5H149.7z"/>
		<path class="st2" d="M195.8,113c16.9,0,29.8,4.2,38.4,12.6c8.7,8.4,13,19,13,31.9c0,9.8-2.4,20.1-7.3,31
			c-4.9,10.9-19.3,34-43.2,69.4h46.7V287h-93.8l0-24.4c27.8-45.4,44.3-73.5,49.5-84.3c5.2-10.8,7.9-19.2,7.9-25.3
			c0-4.6-0.8-8.1-2.4-10.4c-1.6-2.3-4-3.4-7.2-3.4c-3.2,0-5.7,1.3-7.2,3.8c-1.6,2.5-2.4,7.6-2.4,15.1v16.2h-38.2v-6.2
			c0-9.6,0.5-17.1,1.5-22.6c1-5.5,3.4-11,7.3-16.3c3.9-5.3,8.9-9.4,15.1-12.1C179.7,114.3,187.1,113,195.8,113 M195.8,103
			c-10,0-18.9,1.7-26.3,5c-7.8,3.5-14.2,8.6-19.1,15.4c-4.7,6.5-7.8,13.4-9,20.4c-1.1,6.2-1.6,14.1-1.6,24.4v6.2c0,5.5,4.5,10,10,10
			h35c-8,14.3-22.6,38.8-43.5,73.1c-1,1.6-1.5,3.4-1.5,5.2l0,24.4c0,2.7,1,5.2,2.9,7.1c1.9,1.9,4.4,2.9,7.1,2.9h93.8
			c5.5,0,10-4.5,10-10v-29.1c0-5.5-4.5-10-10-10h-28c18.2-27.4,29.2-45.5,33.6-55.3c5.4-12.1,8.2-24,8.2-35.1
			c0-15.6-5.4-28.8-16.1-39.1C230.6,108.2,215.3,103,195.8,103L195.8,103z"/>
	</g>
</g>
</svg>
