<?xml version="1.0" encoding="utf-8"?>
<!-- Generator: Adobe Illustrator 22.0.0, SVG Export Plug-In . SVG Version: 6.00 Build 0)  -->
<svg version="1.1" id="图层_1" xmlns="http://www.w3.org/2000/svg" xmlns:xlink="http://www.w3.org/1999/xlink" x="0px" y="0px"
	 viewBox="0 0 400 400" style="enable-background:new 0 0 400 400;" xml:space="preserve">
<style type="text/css">
	.st0{fill:#AC7953;}
	.st1{fill:#FFFFFF;}
	.st2{fill:#85532D;}
</style>
<path class="st0" d="M200.5,0.3c110.5,0,200.1,89.6,200.1,200.1S311,400.5,200.5,400.5S0.4,310.9,0.4,200.4S90,0.3,200.5,0.3z"/>
<g>
	<g>
		<path class="st1" d="M200.5,297.4c-12.8,0-23.4-2.1-31.7-6.3c-8.6-4.4-14.9-10.6-18.7-18.7c-3.6-7.7-5.5-17.3-5.5-28.7
			c0-2.8,2.2-5,5-5h42.6c2.8,0,5,2.2,5,5c0,9.6,0.2,13.2,0.3,14.5c0.1,0.9,0.4,1.5,1,2.1c0.2,0.2,0.8,0.8,2.8,0.8
			c1.1,0,1.6-0.3,1.9-0.6c0.4-0.3,0.7-0.8,0.8-2c0.1-1.4,0.2-4.6,0.2-12.3v-13.8c-0.7,0.5-1.4,0.9-2.1,1.3c-4.9,2.7-11,4-18.1,4
			c-8.8,0-16.7-2.4-23.6-7.2c-6.9-4.9-11.4-10.9-13.3-18c-1.8-6.4-2.6-14.7-2.6-25.3v-13.6c0-12.3,0.5-21.3,1.5-27.5
			c1.1-6.7,3.9-12.9,8.4-18.5c4.5-5.6,10.7-10,18.4-13.1c7.5-3,16.3-4.5,26.1-4.5c12,0,22.1,1.7,30,5.2c8.2,3.5,14.6,8.7,19.1,15.5
			c4.5,6.6,7.1,13.7,7.8,21c0.7,6.8,1,19.3,1,38.5v23.7c0,20.6-0.3,34.1-0.9,41.2c-0.6,7.7-3.4,15.1-8.2,21.9
			c-4.9,6.9-11.5,12.1-19.7,15.5C220.1,295.7,210.9,297.4,200.5,297.4z M198.4,200c0.9,0.8,1.6,1.2,2.3,1.2c1.7,0,2-0.5,2.3-0.9
			c0.2-0.3,1.3-2.4,1.3-9.9v-30.9c0-9.5-1.1-11.9-1.3-12.3c-0.2-0.4-0.5-0.9-2.1-0.9c-0.1,0-0.9,0.1-2.3,1.3
			c-0.2,0.3-1.4,2.5-1.4,10.9v32C197.2,197.7,198.3,199.7,198.4,200z"/>
		<path class="st2" d="M199,115c11.4,0,20.7,1.6,28.1,4.7c7.3,3.2,13,7.7,17,13.7c4,5.9,6.3,12.2,7,18.7c0.6,6.5,0.9,19.2,0.9,38
			v23.7c0,20.3-0.3,33.9-0.8,40.8c-0.6,6.9-3,13.3-7.3,19.5c-4.3,6.1-10.2,10.7-17.6,13.8c-7.4,3.1-15.9,4.6-25.6,4.6
			c-12,0-21.9-1.9-29.5-5.8c-7.6-3.9-13.1-9.3-16.5-16.3c-3.3-7-5-15.9-5-26.6h42.6c0,7.9,0.1,13,0.3,15c0.2,2.1,1.1,3.8,2.6,5.2
			c1.5,1.4,3.6,2.1,6.2,2.1c2.2,0,4-0.7,5.4-2c1.4-1.3,2.2-3.1,2.4-5.2c0.2-2.1,0.3-6.4,0.3-12.8v-27.2c-2.1,4.6-5.3,8-9.5,10.3
			c-4.2,2.3-9.5,3.4-15.7,3.4c-7.8,0-14.7-2.1-20.7-6.3c-6-4.2-9.8-9.3-11.4-15.2c-1.6-5.9-2.4-13.9-2.4-23.9v-13.6
			c0-12,0.5-20.8,1.4-26.7c0.9-5.8,3.4-11.2,7.3-16.2c3.9-5,9.4-8.8,16.3-11.5C181.7,116.3,189.7,115,199,115 M200.7,206.2
			c3,0,5.1-1.1,6.5-3.2c1.4-2.1,2.1-6.3,2.1-12.6v-30.9c0-7.5-0.7-12.4-2-14.8c-1.3-2.3-3.5-3.5-6.5-3.5c-1.8,0-3.7,0.9-5.7,2.7
			c-2,1.8-3,6.6-3,14.5v32c0,7.2,0.9,11.6,2.8,13.3C196.9,205.4,198.8,206.2,200.7,206.2 M199,105c-10.4,0-19.8,1.6-27.9,4.8
			c-8.6,3.4-15.5,8.3-20.5,14.6c-5,6.3-8.1,13.3-9.4,20.8c-1,6.4-1.6,15.7-1.6,28.3v13.6c0,11.1,0.9,19.8,2.8,26.6
			c2.1,7.8,6.9,14.5,14.2,19.9h-7c-5.5,0-10,4.5-10,10c0,12.1,2,22.5,6,30.9c4.3,9,11.3,16.1,21,21c9,4.6,20.4,6.9,34,6.9
			c11,0,20.9-1.8,29.5-5.3c9.1-3.8,16.5-9.6,21.9-17.2c5.3-7.6,8.4-15.8,9.1-24.4c0.6-7.2,0.9-20.8,0.9-41.6v-23.7
			c0-19.3-0.3-32-1-38.9c-0.8-8.2-3.7-16-8.6-23.3c-5.1-7.5-12.2-13.3-21.3-17.2C222.4,106.8,211.7,105,199,105L199,105z"/>
	</g>
</g>
</svg>
