<?xml version="1.0" standalone="no"?><!DOCTYPE svg PUBLIC "-//W3C//DTD SVG 1.1//EN" "http://www.w3.org/Graphics/SVG/1.1/DTD/svg11.dtd"><svg t="1589788731506" class="icon" viewBox="0 0 1025 1024" version="1.1" xmlns="http://www.w3.org/2000/svg" p-id="1663" xmlns:xlink="http://www.w3.org/1999/xlink" width="200.1953125" height="200"><defs><style type="text/css"></style></defs><path d="M512.639201 0.767041C795.166042 0.767041 1024.25568 229.856679 1024.25568 512.383521S795.166042 1024 512.639201 1024 1.022722 794.910362 1.022722 512.383521 230.11236 0.767041 512.639201 0.767041z" fill="#FF6161" p-id="1664"></path><path d="M515.707366 760.904869c-34.261174 0-62.386017-5.624969-82.84045-16.874906-21.221473-11.505618-36.562297-27.102122-46.022472-46.533833-9.204494-18.92035-13.551061-48.323596-13.551061-89.999501 0-27.102122 2.045443-51.13608 6.39201-71.334831 3.579526-17.386267 12.78402-31.96005 27.613483-43.977029-7.670412-6.903371-14.062422-15.340824-18.920349-25.31236-7.414732-15.852185-11.249938-35.795256-11.249938-59.317852 0-41.164544 12.016979-72.868914 35.539576-94.090387 23.266916-20.965793 57.52809-31.448689 102.016479-31.448689 52.158801 0 87.954057 11.249938 108.91985 34.005493 20.454432 22.244195 30.937328 53.948564 30.937329 94.090387 0 26.079401-3.579526 44.74407-10.738577 57.272409-4.857928 8.181773-12.272659 16.107865-22.755556 23.778277 8.948814 6.13633 16.363546 13.806742 22.244195 22.755556 6.39201 9.715855 15.085144 30.425968 15.085144 98.948315 0 37.329338-3.579526 64.431461-11.249938 82.840449-7.926092 19.43171-23.266916 35.539576-45.766791 47.556554-21.732834 11.761298-50.369039 17.641948-85.652934 17.641948z m-0.511361-209.913608c-3.579526 0-4.090886 1.022722-4.602247 1.789763-0.25568 0.511361-2.812484 5.624969-2.812485 27.102122v56.505368c0 23.522597 2.812484 28.891885 3.323846 29.403246 0.511361 0.767041 1.534082 2.301124 5.880649 2.301124 1.534082 0 3.835206-0.25568 4.090886-1.022722 0.25568-0.511361 2.812484-6.39201 2.812485-31.448689v-55.738327c0-20.710112-2.812484-26.079401-3.068165-26.590761-1.022722-1.022722-1.789763-2.301124-5.624969-2.301124z m0.25568-176.163795c-2.301124 0-3.068165 0.511361-3.068164 0.51136-0.511361 1.022722-2.556804 5.880649-2.556804 23.266917v33.238452c0 15.596504 2.301124 20.198752 2.556804 20.965793 0.25568 0.511361 0.511361 1.022722 3.579525 1.022721 2.301124 0 3.323845-0.511361 3.323845-0.511361 0.25568-0.511361 2.301124-5.113608 2.301124-24.800998v-29.914607c0-18.408989-2.301124-22.755556-2.301124-23.011236-0.25568-0.25568-1.278402-0.767041-3.835206-0.767041z" fill="#FFFFFF" p-id="1665"></path><path d="M514.684644 294.799501c48.067915 0 81.050687 9.971536 99.459676 29.914606 18.408989 19.943071 27.613483 48.323596 27.613483 85.397254 0 23.522597-3.068165 40.397503-8.948814 50.880399-6.13633 10.482896-18.408989 20.710112-37.073658 30.937329 16.107865 6.39201 28.380524 16.107865 36.817977 28.891885 8.693134 12.78402 13.0397 43.465668 13.039701 91.789263 0 35.283895-3.323845 61.363296-10.227216 77.982522s-20.198752 30.425968-39.886143 41.164544c-19.687391 10.738577-46.278152 16.107865-79.516604 16.107866-32.471411 0-58.039451-5.113608-76.9598-15.340824-18.92035-10.227216-32.471411-23.778277-40.653184-40.653184-8.181773-16.874906-12.272659-44.99975-12.272659-84.374532 0-26.335081 2.045443-49.346317 6.13633-68.778027 4.090886-19.43171 16.874906-35.028215 38.096379-46.789513-13.551061-6.39201-23.522597-16.874906-30.425967-30.937329-6.64769-14.062422-10.227216-31.96005-10.227216-53.692884 0-37.585019 10.482896-65.709863 31.193009-84.374531 20.965793-18.664669 52.158801-28.124844 93.834706-28.124844m1.278402 171.561548c7.159051 0 12.016979-2.556804 14.573783-7.414732s3.835206-15.085144 3.835206-30.681648v-29.914607c0-14.829463-1.278402-24.545318-3.835206-29.147565-2.556804-4.857928-7.670412-7.159051-15.085144-7.159051-7.159051 0-12.016979 2.556804-14.573782 7.670412s-3.835206 14.573783-3.835206 28.636204v33.238452c0 13.0397 1.534082 22.244195 4.346566 27.357803 2.812484 4.857928 7.670412 7.414732 14.573783 7.414732m0.767041 214.515855c7.670412 0 13.0397-2.812484 15.596505-8.181773 2.812484-5.369288 4.090886-17.897628 4.090886-37.073658v-55.738327c0-16.619226-1.789763-27.869164-5.113608-33.238452-3.323845-5.369288-8.693134-8.181773-16.107865-8.181773-7.159051 0-12.272659 2.556804-15.596504 7.926093-3.068165 5.369288-4.602247 16.619226-4.602248 33.494132v56.505368c0 18.92035 1.789763 30.937328 5.369289 36.306617 3.323845 5.624969 8.948814 8.181773 16.363545 8.181773m-2.045443-411.645443c-47.812235 0-85.141573 11.761298-110.709613 34.772534-26.335081 23.778277-39.630462 58.550811-39.630462 103.550562 0 25.56804 4.346567 47.300874 12.52834 64.687141 3.323845 7.159051 7.414732 13.551061 12.272659 19.17603-11.249938 12.016979-18.664669 26.079401-21.988514 41.931585-4.346567 20.965793-6.64769 46.022472-6.647691 73.891636 0 43.721348 4.857928 74.914357 14.829463 95.624469 10.482896 21.732834 27.869164 39.374782 51.391761 52.158802 23.011236 12.52834 51.903121 18.408989 88.976779 18.408988 37.840699 0 68.010986-6.13633 91.789263-19.176029 25.056679-13.551061 42.187266-31.70437 51.391761-53.948565 8.181773-19.943071 12.272659-48.579276 12.272659-87.698377 0-71.334831-9.204494-94.090387-17.386267-106.107366-3.835206-5.624969-8.181773-10.738577-13.039701-15.596504 5.880649-5.624969 10.482896-11.505618 14.062422-17.386267 8.437453-14.573783 12.52834-35.283895 12.52834-63.66442 0-43.465668-11.505618-77.982522-34.261174-102.78352-23.778277-25.31236-62.386017-37.840699-118.380025-37.840699z" fill="#C72D2D" p-id="1666"></path></svg>