<?xml version="1.0" encoding="utf-8"?>
<!-- Generator: Adobe Illustrator 22.0.0, SVG Export Plug-In . SVG Version: 6.00 Build 0)  -->
<svg version="1.1" id="图层_1" xmlns="http://www.w3.org/2000/svg" xmlns:xlink="http://www.w3.org/1999/xlink" x="0px" y="0px"
	 viewBox="0 0 400 400" style="enable-background:new 0 0 400 400;" xml:space="preserve">
<style type="text/css">
	.st0{fill:#5C4388;}
	.st1{fill:#FFFFFF;}
	.st2{fill:#3F2867;}
</style>
<path class="st0" d="M200.5,0.3c110.5,0,200.1,89.6,200.1,200.1S311,400.5,200.5,400.5S0.4,310.9,0.4,200.4S90,0.3,200.5,0.3z"/>
<g>
	<g>
		<path class="st1" d="M202.6,297.3c-12.1,0-22.2-1.7-30.1-5.2c-8.2-3.5-14.6-8.7-19.1-15.5c-4.4-6.6-7-13.7-7.8-21
			c-0.7-6.8-1-19.4-1-38.6v-23.6c0-20.7,0.3-34.1,0.9-41.2c0.7-7.7,3.4-15.1,8.2-21.9c4.8-6.9,11.5-12.1,19.7-15.5
			c8-3.3,17.3-5,27.6-5c12.7,0,23.3,2.1,31.7,6.3c8.6,4.4,14.9,10.7,18.7,18.7c3.6,7.7,5.4,17.3,5.4,28.7v5h-52.6v-5
			c0-9.7-0.1-13.3-0.2-14.6c-0.1-0.8-0.4-1.4-1-2c-0.2-0.2-0.8-0.8-2.8-0.8c-1.1,0-1.6,0.3-1.9,0.6c-0.4,0.3-0.8,0.9-0.9,2
			c-0.1,1.3-0.3,4.5-0.3,12.3V175c0.7-0.5,1.5-0.9,2.2-1.3c4.9-2.7,11-4,18-4c8.8,0,16.7,2.4,23.6,7.2c6.9,4.9,11.4,10.9,13.3,18
			c1.8,6.4,2.6,14.7,2.6,25.3v13.6c0,12.3-0.5,21.3-1.4,27.5c-1,6.7-3.9,12.9-8.4,18.5c-4.5,5.6-10.7,10-18.4,13.1
			C221.2,295.8,212.4,297.3,202.6,297.3z M200.7,206c-1.7,0-2,0.5-2.3,0.9c-0.2,0.3-1.3,2.4-1.3,9.9v30.9c0,9.5,1.1,11.9,1.3,12.3
			c0.2,0.4,0.5,0.9,2.1,0.9c0.4,0,1.2-0.3,2.3-1.3c0.2-0.3,1.4-2.5,1.4-10.9v-32c0-7.1-1-9.4-1.3-9.9
			C202.8,206.6,202.4,206,200.7,206z"/>
		<path class="st2" d="M201.1,114.9c12,0,21.8,1.9,29.4,5.8c7.7,3.9,13.1,9.3,16.5,16.3c3.3,7,5,15.9,5,26.6h-42.6
			c0-7.9-0.1-13-0.3-15c-0.2-2.1-1-3.8-2.5-5.2c-1.5-1.4-3.6-2.1-6.2-2.1c-2.2,0-4,0.7-5.4,2c-1.4,1.3-2.2,3.1-2.4,5.2
			c-0.2,2.1-0.3,6.4-0.3,12.8v27.2c2.2-4.6,5.4-8,9.6-10.3c4.2-2.3,9.4-3.4,15.6-3.4c7.8,0,14.7,2.1,20.7,6.3
			c6,4.2,9.8,9.3,11.4,15.2c1.6,5.9,2.4,13.9,2.4,23.9v13.6c0,12-0.5,20.8-1.4,26.7c-0.9,5.8-3.4,11.2-7.3,16.2
			c-4,5-9.4,8.8-16.3,11.5c-6.9,2.7-15,4.1-24.2,4.1c-11.5,0-20.8-1.6-28.2-4.7c-7.3-3.2-13-7.7-16.9-13.7c-4-5.9-6.3-12.2-7-18.7
			c-0.7-6.5-1-19.2-1-38.1v-23.6c0-20.3,0.3-33.9,0.9-40.8c0.6-6.9,3-13.3,7.3-19.5c4.3-6.1,10.1-10.7,17.6-13.8
			C182.8,116.4,191.4,114.9,201.1,114.9 M200.6,266c1.8,0,3.7-0.9,5.7-2.7c2-1.8,3-6.6,3-14.5v-32c0-6-0.7-10.2-2-12.4
			c-1.3-2.2-3.5-3.4-6.5-3.4c-3,0-5.1,1.1-6.5,3.2c-1.4,2.1-2.1,6.3-2.1,12.6v30.9c0,7.5,0.6,12.4,2,14.8
			C195.5,264.8,197.6,266,200.6,266 M201.1,104.9c-11,0-20.9,1.8-29.5,5.3c-9.2,3.8-16.6,9.6-21.9,17.3c-5.3,7.5-8.4,15.7-9.1,24.3
			c-0.6,7.2-0.9,20.8-0.9,41.6v23.6c0,19.4,0.3,32.2,1.1,39.1c0.8,8.1,3.7,16,8.6,23.3c5,7.5,12.2,13.4,21.3,17.3
			c8.7,3.7,19.2,5.6,32.1,5.6c10.4,0,19.8-1.6,27.9-4.8c8.5-3.4,15.4-8.3,20.5-14.6c5.1-6.3,8.2-13.3,9.4-20.9
			c1-6.4,1.5-15.7,1.5-28.2v-13.6c0-11-0.9-19.7-2.8-26.6c-2.1-7.8-6.9-14.5-14.2-20h7h10v-10c0-12.1-2-22.5-5.9-30.8
			c-4.3-9.1-11.3-16.1-21-21C226,107.2,214.5,104.9,201.1,104.9L201.1,104.9z"/>
	</g>
</g>
</svg>
