<?xml version="1.0" encoding="utf-8"?>
<!-- Generator: Adobe Illustrator 22.0.0, SVG Export Plug-In . SVG Version: 6.00 Build 0)  -->
<svg version="1.1" id="图层_1" xmlns="http://www.w3.org/2000/svg" xmlns:xlink="http://www.w3.org/1999/xlink" x="0px" y="0px"
	 viewBox="0 0 400 400" style="enable-background:new 0 0 400 400;" xml:space="preserve">
<style type="text/css">
	.st0{fill:#B7E0A7;}
	.st1{fill:#FFFFFF;}
	.st2{fill:#4A8832;}
</style>
<path class="st0" d="M200.5,0.3c110.5,0,200.1,89.6,200.1,200.1S311,400.5,200.5,400.5S0.4,310.9,0.4,200.4S90,0.3,200.5,0.3z"/>
<g>
	<g>
		<path class="st1" d="M126.7,296c-2.8,0-5-2.2-5-5v-91.5c0-17.4-0.6-21.6-0.8-22.7c-0.2-0.8-0.7-1.8-2.5-2.7
			c-0.8-0.4-4.2-1.6-16.9-1.6h-4.2c-2.8,0-5-2.2-5-5v-19.9c0-2.4,1.6-4.4,3.9-4.9c19.3-4.2,34.1-12.7,44-25.5c0.9-1.2,2.4-1.9,4-1.9
			h25.1c2.8,0,5,2.2,5,5V291c0,2.8-2.2,5-5,5H126.7z"/>
		<path class="st2" d="M169.3,120.2V291h-42.6v-91.5c0-13.2-0.3-21.2-0.9-23.8c-0.6-2.7-2.4-4.7-5.2-6.1c-2.8-1.4-9.2-2.1-19-2.1
			h-4.2v-19.9c20.6-4.4,36.2-13.5,46.9-27.3H169.3 M169.3,110.2h-25.1c-3.1,0-6,1.4-7.9,3.9c-9.3,12-22.7,19.7-41.1,23.7
			c-4.6,1-7.9,5.1-7.9,9.8v19.9c0,5.5,4.5,10,10,10h4.2c10.3,0,13.8,0.8,14.6,1.1c0.2,1.6,0.6,6.6,0.6,20.9V291c0,5.5,4.5,10,10,10
			h42.6c5.5,0,10-4.5,10-10V120.2C179.3,114.7,174.8,110.2,169.3,110.2L169.3,110.2z"/>
	</g>
	<g>
		<path class="st1" d="M238.5,299.3c-10.7,0-19.8-1.3-27.1-3.8c-7.6-2.7-13.8-6.9-18.4-12.6c-4.4-5.5-7.6-11.3-9.4-17.4
			c-1.9-6.1-2.7-15.1-2.7-27.8V178c0-16.4,1.4-28.5,4.3-36.9c3.1-8.9,9.3-16.1,18.3-21.4c8.8-5.1,19.5-7.8,31.8-7.8
			c10,0,19.1,1.8,27.1,5.3c8.1,3.6,14.3,8.1,18.5,13.5c4.1,5.3,6.9,11.3,8.4,17.9c1.4,6.3,2.1,15.9,2.1,29.3v57
			c0,13.4-0.7,23.1-2.2,29.4c-1.6,6.7-4.9,13-9.8,18.7c-5,5.8-11.1,10-18.1,12.5C254.4,298,246.8,299.3,238.5,299.3z M234.4,262.8
			c0.2,0.1,0.7,0.2,1.7,0.2c1.4,0,1.5-0.3,1.6-0.5c0.3-0.6,1.1-3.5,1.1-14.2v-84.6c0-12.1-0.8-14.8-1-15.2c0,0,0,0,0,0
			c-0.1-0.1-0.6-0.2-1.5-0.2c-1.4,0-1.6,0.3-1.7,0.6c-0.3,0.6-1.1,3.6-1.1,14.9V247C233.5,259,234.2,262.1,234.4,262.8z"/>
		<path class="st2" d="M235.3,117c9.4,0,17.7,1.6,25.1,4.9c7.4,3.3,12.9,7.3,16.6,12c3.7,4.7,6.1,10,7.4,15.9c1.3,5.9,2,15.3,2,28.3
			v57c0,12.9-0.7,22.4-2.1,28.3c-1.4,5.9-4.3,11.4-8.8,16.6c-4.4,5.1-9.8,8.8-16,11.1c-6.3,2.2-13.3,3.4-21,3.4
			c-10.2,0-18.7-1.2-25.4-3.5s-12.1-6-16.1-11c-4-5-6.9-10.2-8.5-15.8c-1.7-5.5-2.5-14.3-2.5-26.3V178c0-15.7,1.4-27.4,4.1-35.2
			c2.7-7.8,8.1-14.1,16.1-18.8C214.1,119.3,223.9,117,235.3,117 M236.1,268c3.2,0,5.2-1.2,6.2-3.6c1-2.4,1.5-7.8,1.5-16.1v-84.6
			c0-9.1-0.4-14.7-1.3-17c-0.9-2.3-2.9-3.4-6.2-3.4c-3.2,0-5.3,1.2-6.3,3.6c-1,2.4-1.5,8-1.5,16.8V247c0,9.9,0.5,15.9,1.4,17.9
			C230.8,267,232.9,268,236.1,268 M235.3,107c-13.2,0-24.8,2.8-34.3,8.4c-10.1,5.9-17,14-20.5,24.1c-3.1,8.9-4.6,21.5-4.6,38.5v59.6
			c0,13.1,1,22.7,3,29.2c2.1,6.7,5.5,13.1,10.3,19.1c5.2,6.5,12.1,11.2,20.6,14.2c7.9,2.8,17.3,4.1,28.7,4.1c8.9,0,17.1-1.3,24.4-4
			c7.9-2.8,14.7-7.5,20.2-14c5.5-6.3,9.1-13.3,10.9-20.8c1.6-6.7,2.4-16.7,2.4-30.6v-57c0-13.8-0.7-23.7-2.2-30.4
			c-1.6-7.3-4.7-14-9.3-19.9c-4.7-6-11.5-11.1-20.4-15C255.8,108.9,246,107,235.3,107L235.3,107z"/>
	</g>
</g>
</svg>
