<?xml version="1.0" encoding="utf-8"?>
<!-- Generator: Adobe Illustrator 22.0.0, SVG Export Plug-In . SVG Version: 6.00 Build 0)  -->
<svg version="1.1" id="图层_1" xmlns="http://www.w3.org/2000/svg" xmlns:xlink="http://www.w3.org/1999/xlink" x="0px" y="0px"
	 viewBox="0 0 400 400" style="enable-background:new 0 0 400 400;" xml:space="preserve">
<style type="text/css">
	.st0{fill:#63C6CF;}
	.st1{fill:#FFFFFF;}
	.st2{fill:#278D96;}
</style>
<path class="st0" d="M200.5,0.3c110.5,0,200.1,89.6,200.1,200.1S311,400.5,200.5,400.5S0.4,310.9,0.4,200.4S90,0.3,200.5,0.3z"/>
<g>
	<g>
		<path class="st1" d="M202.1,297.3c-11.6,0-22.1-2.1-31.1-6.2c-9.4-4.3-16.3-10.9-20.3-19.6c-3.9-8.3-5.7-20.5-5.7-37.3v-9.3
			c0-2.8,2.2-5,5-5h42.6c2.8,0,5,2.2,5,5v10.7c0,10.7,0.4,18.4,1.1,22.7c0.4,2.4,1.1,2.8,3.1,2.8c1.1,0,1.4-0.3,1.5-0.5
			c0.4-0.5,0.7-0.9,0.7-1.2c0.1-1,0.2-5.2,0.4-19.9v-33.8c0-7.7-1-10-1.3-10.6c-0.2-0.4-0.6-1-2.3-1c-0.9,0-1.3,0.3-1.6,0.5
			c-0.6,0.5-1,1.1-1.1,1.5c0,0.2-0.4,1.7-0.4,8.2c0,2.8-2.2,5-5,5h-42.2c-1.3,0-2.6-0.5-3.6-1.5c-0.9-1-1.5-2.3-1.4-3.6l1.8-86.1
			c0.1-2.7,2.3-4.9,5-4.9h91.4c2.8,0,5,2.2,5,5v27.3c0,2.8-2.2,5-5,5h-47.8v13c5.9-3.8,12.8-5.7,20.5-5.7c13.1,0,23.3,3.9,30.3,11.5
			c7,7.6,10.3,21.1,10.3,41.3V235c0,12.5-0.6,21.6-1.8,27.6c-1.3,6.4-4.1,12.4-8.4,17.8c-4.3,5.5-10.4,9.8-18,12.7
			C221.3,295.9,212.4,297.3,202.1,297.3z"/>
		<path class="st2" d="M243.6,118.2v27.3h-52.8v29c6.6-7.8,15.1-11.7,25.5-11.7c11.7,0,20.6,3.3,26.6,9.9c6,6.6,9,19.2,9,37.9V235
			c0,12.1-0.6,21-1.7,26.6c-1.2,5.7-3.6,10.9-7.4,15.7c-3.8,4.8-9.1,8.5-15.9,11.1c-6.8,2.6-15.1,3.8-24.8,3.8
			c-11,0-20.6-1.9-29-5.7c-8.4-3.8-14.3-9.5-17.8-17.1c-3.5-7.6-5.3-19.3-5.3-35.2v-9.3h42.6v10.7c0,11,0.4,18.9,1.2,23.5
			c0.8,4.6,3.4,7,8,7c2.1,0,3.8-0.7,5.1-2c1.3-1.3,2-2.8,2.1-4.3c0.1-1.5,0.2-8.3,0.4-20.1v-33.9c0-6.4-0.7-10.8-2-13.1
			c-1.3-2.3-3.6-3.5-6.6-3.5c-2,0-3.6,0.6-5,1.8c-1.3,1.2-2.2,2.5-2.6,3.8c-0.4,1.4-0.6,4.6-0.6,9.5h-42.2l1.8-86.1H243.6
			 M243.6,108.2h-91.4c-5.4,0-9.9,4.4-10,9.8l-1.8,86.1c-0.1,2.7,1,5.3,2.9,7.2c1.9,1.9,4.5,3,7.1,3h42.2c2.6,0,5-1,6.8-2.6v5.8
			c-1.8-1.6-4.2-2.6-6.8-2.6H150c-5.5,0-10,4.5-10,10v9.3c0,17.5,2,30.4,6.2,39.4c4.5,9.8,12.2,17.2,22.7,22
			c9.6,4.4,20.8,6.7,33.2,6.7c10.9,0,20.5-1.5,28.4-4.5c8.5-3.2,15.3-8,20.2-14.2c4.8-6,7.9-12.7,9.4-19.9
			c1.3-6.4,1.9-15.7,1.9-28.6v-24.4c0-21.5-3.8-36.1-11.6-44.7c-4.4-4.8-9.8-8.2-16.1-10.4h9.4c5.5,0,10-4.5,10-10v-27.3
			C253.6,112.7,249.1,108.2,243.6,108.2L243.6,108.2z"/>
	</g>
</g>
</svg>
