<?xml version="1.0" standalone="no"?><!DOCTYPE svg PUBLIC "-//W3C//DTD SVG 1.1//EN" "http://www.w3.org/Graphics/SVG/1.1/DTD/svg11.dtd"><svg t="1545643534744" class="icon" style="" viewBox="0 0 1024 1024" version="1.1" xmlns="http://www.w3.org/2000/svg" p-id="26192" xmlns:xlink="http://www.w3.org/1999/xlink" width="200" height="200"><defs><style type="text/css"></style></defs><path d="M865.773 407.506c-16.142 0-29.127 12.986-29.127 29.127v375.982c0 12.622-10.316 22.938-22.938 22.938h-600.989c-12.622 0-22.938-10.316-22.938-22.938v-601.11c0-12.622 10.316-22.938 22.938-22.938h375.254c16.142 0 29.127-12.986 29.127-29.127s-12.986-29.127-29.127-29.127h-375.254c-44.783 0-81.191 36.409-81.191 81.191v600.989c0 44.783 36.409 81.191 81.191 81.191h600.989c44.783 0 81.191-36.409 81.191-81.191v-375.861c0-16.142-13.107-29.127-29.127-29.127z" fill="#e12121" p-id="26193"></path><path d="M334.324 551.322l-35.438 139.568c-2.548 9.952 0.364 20.511 7.646 27.792s17.84 10.194 27.792 7.646l139.568-35.438c5.098-1.334 9.709-3.884 13.471-7.646l387.876-387.876c26.457-26.457 26.093-69.905-0.729-96.848l-47.696-47.696c-26.943-26.943-70.39-27.307-96.848-0.729l-387.997 387.755c-3.641 3.762-6.311 8.374-7.646 13.471zM771.109 191.237c3.762-3.762 10.316-3.398 14.563 0.729l47.696 47.696c4.127 4.127 4.491 10.801 0.729 14.563l-29.977 29.977-62.988-62.988 29.977-29.977zM699.87 262.356l62.988 62.988-278.164 278.043-62.988-62.988 278.164-278.043zM385.539 586.516l53.157 53.157-71.239 18.083 18.083-71.239z" fill="#e12121" p-id="26194"></path></svg>